<?xml version="1.0" standalone="no"?>
<!DOCTYPE svg PUBLIC "-//W3C//DTD SVG 20010904//EN"
 "http://www.w3.org/TR/2001/REC-SVG-20010904/DTD/svg10.dtd">
<svg version="1.0" xmlns="http://www.w3.org/2000/svg"
 width="300.000000pt" height="300.000000pt" viewBox="0 0 300.000000 300.000000"
 preserveAspectRatio="xMidYMid meet">
<metadata>
Created by potrace 1.11, written by Peter Selinger 2001-2013
</metadata>
<g transform="translate(0.000000,300.000000) scale(0.100000,-0.100000)"
fill="#000000" stroke="none">
<path d="M1135 2989 c-198 -18 -395 -69 -518 -137 -49 -26 -107 -86 -107 -108
0 -7 -30 -29 -67 -50 -95 -52 -163 -105 -211 -160 -32 -38 -38 -51 -32 -68 13
-32 70 -221 70 -232 0 -11 50 -35 110 -55 87 -27 91 -30 74 -47 -90 -89 -197
-297 -230 -443 -2 -11 -6 -27 -8 -37 -25 -111 -23 -319 4 -422 5 -19 11 -46
14 -60 11 -53 87 -235 105 -250 3 -3 13 -18 21 -33 37 -74 174 -217 275 -289
91 -65 236 -135 318 -154 9 -2 26 -6 38 -9 11 -2 28 -6 37 -9 9 -3 44 -8 77
-12 154 -18 281 -7 426 35 l66 19 34 -41 c42 -49 140 -144 171 -165 13 -9 25
-19 28 -23 11 -16 65 -30 119 -30 149 0 149 0 227 -101 57 -73 97 -98 160 -98
147 0 216 184 134 350 -10 19 -30 48 -46 63 -25 25 -26 29 -13 53 9 17 13 55
12 108 -2 130 -3 136 -32 154 -37 23 -39 29 -31 71 11 64 -12 147 -50 179 -34
28 -59 43 -80 47 -32 6 -33 9 -17 48 19 44 59 58 166 61 134 3 197 53 195 156
0 54 -17 98 -61 159 -17 23 -17 24 7 16 113 -36 249 68 276 210 20 111 1 182
-70 261 -48 54 -54 65 -58 114 -8 97 -59 183 -142 238 -58 39 -118 56 -200 57
-60 0 -78 -4 -120 -29 -41 -24 -52 -26 -72 -17 l-25 11 22 29 c18 25 22 46 25
128 l3 99 -35 27 c-38 31 -164 100 -164 91 0 -4 -6 -2 -12 3 -7 6 -39 18 -70
28 -47 14 -62 25 -84 59 -36 55 -78 92 -139 123 -54 28 -155 65 -155 57 0 -3
-8 -1 -17 5 -38 20 -225 31 -348 20z"/>
</g>
</svg>
